<?xml version="1.0" encoding="utf-8"?>
<!-- Generator: Adobe Illustrator 26.4.1, SVG Export Plug-In . SVG Version: 6.00 Build 0)  -->
<svg version="1.1" id="Слой_1" xmlns="http://www.w3.org/2000/svg" xmlns:xlink="http://www.w3.org/1999/xlink" x="0px" y="0px"
	 viewBox="0 0 595.3 841.9" style="enable-background:new 0 0 595.3 841.9;" xml:space="preserve">
<style type="text/css">
	.st0{fill:none;}
	.st1{fill:#BD2122;}
	.st2{font-family:'Montserrat-Bold';}
	.st3{font-size:60px;}
	.st4{fill:#BD2023;}
</style>
<symbol  id="Runner" viewBox="-29.6 -29.6 59.3 59.3">
	<g>
		<rect x="-29.6" y="-29.6" class="st0" width="59.3" height="59.3"/>
		<path class="st1" d="M29.6-23.5l-1.4,2.2l-3-2.5C22.2-19.4,14.2-6.1,4-2.3C4.8,1.1,4.1,4,4.1,7.4c15.7-1.8,14.7,17.2,14.7,17.2
			C15,9.9,8.6,11.9,4.8,14.9c-0.8,1.4-1.8,2.5-3.2,3.3L2.1,21c0.3,0,0.6,0.1,0.8,0.2c1.9,0.7,3,3.1,2.4,5.3
			c-0.6,2.2-2.7,3.4-4.6,2.7c-1.9-0.7-3-3.1-2.4-5.3c0.3-1.2,1.1-2,2-2.5l-0.5-2.5C-17.3,24.9-23,8.1-23,8.1
			c12.3,10.5,15,5.2,15,5.2c0.2-4-0.7-9.2-1.2-13.3c-2.4-3.2-4.8-6.7-5.9-18.5c0,0-10.6,2.3-10.7,2.3l-3.7-5.6l1.9-1.6l2.3,3.7
			c2.6-2.4,7.8-6.2,13.4-3.4c4.6,2.3,7.3,7.1,8.9,10.5c9.9,4.2,27.9-15,28-15.1L29.6-23.5z"/>
	</g>
</symbol>
<text transform="matrix(1 0 0 1 146.2004 433.1304)"><tspan x="0" y="0" class="st2 st3">Fit</tspan><tspan x="82.5" y="0" class="st4 st2 st3">Life</tspan><tspan x="197.9" y="0" class="st2 st3">Pro</tspan></text>
<use xlink:href="#Runner"  width="59.3" height="59.3" x="-29.6" y="-29.6" transform="matrix(1 0 0 -1 487.504 414.0869)" style="overflow:visible;"/>
</svg>
